<svg xmlns="http://www.w3.org/2000/svg" xmlns:xlink="http://www.w3.org/1999/xlink" width="500" zoomAndPan="magnify" viewBox="0 0 375 374.999991" height="500" preserveAspectRatio="xMidYMid meet" version="1.0"><path fill="#224359" d="M 184.125 17.082031 C 89.445312 17.082031 12.691406 93.835938 12.691406 188.519531 C 12.691406 283.199219 89.445312 359.953125 184.125 359.953125 C 278.808594 359.953125 355.5625 283.199219 355.5625 188.519531 C 355.5625 93.835938 278.808594 17.082031 184.125 17.082031 Z M 184.125 100.921875 C 218.027344 100.921875 245.613281 128.507812 245.613281 162.410156 C 245.613281 196.316406 218.027344 223.898438 184.125 223.898438 C 150.21875 223.898438 122.636719 196.316406 122.636719 162.410156 C 122.636719 128.507812 150.21875 100.921875 184.125 100.921875 Z M 184.125 336.496094 C 141.703125 336.496094 103.652344 317.886719 77.617188 288.410156 C 89.722656 266.503906 108.644531 248.496094 131.144531 237.582031 C 138.796875 233.871094 147.730469 233.933594 155.660156 237.738281 C 164.585938 242.027344 174.164062 244.199219 184.128906 244.199219 C 194.089844 244.199219 203.671875 242.023438 212.597656 237.738281 C 220.535156 233.929688 229.46875 233.871094 237.113281 237.582031 C 259.613281 248.496094 278.53125 266.503906 290.636719 288.410156 C 264.597656 317.882812 226.546875 336.496094 184.125 336.496094 Z M 184.125 336.496094 " fill-opacity="1" fill-rule="nonzero"/></svg>